<svg xmlns:xlink="http://www.w3.org/1999/xlink" xmlns="http://www.w3.org/2000/svg" version="1.2" viewBox="0 0 768 472" width="768" height="472">
	<title>SWIFT LOGO Convert File-cdr</title>
	<defs>
		<clipPath clipPathUnits="userSpaceOnUse" id="cp1">
			<path d="m0 0h768v472h-768z"/>
		</clipPath>
	</defs>
	<style>
		.s0 { fill: none } 
		.s1 { fill: #0f6fbc } 
		.s2 { fill: #ff2e17;stroke: #ff2e17;stroke-miterlimit:100;stroke-width: 6.3 } 
	</style>
	<g id="Page 1" clip-path="url(#cp1)">
		<g id="Group 1">
		</g>
		<g id="Group 3">
			<path id="Object 4" class="s0" d="m767.6 0.8v472.4h-767.7v-472.4z"/>
			<path id="Object 5" fill-rule="evenodd" class="s1" d="m96.7 60.9h574c16.2 0 31 6.6 41.6 17.3 10.7 10.6 17.3 25.4 17.3 41.6v78.7c0 16.3-6.6 31-17.3 41.7-10.6 10.6-25.4 17.3-41.6 17.3h-574c-16.2 0-30.9-6.7-41.6-17.3-10.7-10.7-17.3-25.4-17.3-41.7v-78.7c0-16.2 6.6-31 17.3-41.6 10.7-10.7 25.4-17.3 41.6-17.3zm574 10.4h-574c-13.3 0-25.4 5.4-34.2 14.2-8.8 8.8-14.3 20.9-14.3 34.3v78.7c0 13.4 5.5 25.5 14.3 34.3 8.8 8.8 20.9 14.2 34.2 14.2h574c13.3 0 25.5-5.4 34.3-14.2 8.8-8.8 14.2-20.9 14.2-34.3v-78.7c0-13.4-5.4-25.5-14.2-34.3-8.8-8.8-21-14.2-34.3-14.2z"/>
			<g id="Group 6">
				<path id="Object 7" class="s1" d="m398.5 284c-3.7 27.7-53.1 21.6-53.2 52.9 0 12.4 13.4 25.7 26.6 26.2 25.2 1 31.1-22.1 44.2-39.5 12.3-16.1 33.5-17.7 24.8 4.3-5 12.7-5.9 11.7-7.5 25.4-1.7 13.7-4.9 28.1-24.2 45-14.9 13-43.7 19.2-67.5 11.4-39-12.7-57-54.5-40.2-90.5 14.8-31.7 49.4-28.4 55.5-42.3v-21.5l41.5 0.1c0 1.9 0.2 28.1 0 28.5z"/>
				<path id="Object 8" class="s1" d="m404.8 271.8c3.9 0 7 3.2 7 7.1q0 0.6-0.1 1.2l-4.6 54.9c0 1.8-1.5 3.3-3.4 3.3-1.8 0-3.4-1.5-3.4-3.3l-2.6-55.5q0-0.3 0-0.6c0-3.9 3.2-7.1 7.1-7.1z"/>
			</g>
			<path id="Object 10" class="s2" d="m122.2 180q8 8.2 15.8 12.3 7.8 4 15.5 4 7.2 0 11.8-3.5 4.6-3.5 4.6-8.8 0-5.9-4-9.1-4-3.2-18-6.7c-12.9-3.1-22-7.2-27.4-12.2q-8-7.6-8-20.7c0-11.4 4.2-20.6 12.7-27.8 8.4-7.2 19.3-10.8 32.7-10.8q10.9 0.1 20.6 2.7 9.8 2.6 18.5 8l-11.2 23.3q-6.1-4.7-12.6-7.1-6.4-2.4-12.7-2.4-6.4 0-10.4 2.8-4.1 2.8-4.1 7.2 0 4.4 3.5 7.1c2.4 1.8 7 3.5 13.7 5.1l1.6 0.4c14.7 3.6 24.3 7.5 28.9 11.8q4.7 4.4 7.1 10.5c1.6 4.1 2.4 8.6 2.4 13.6q0 18.9-13.7 30.4-13.8 11.5-36.7 11.5-13.7 0-25-4.2-11.3-4.3-21.7-13.3zm193.6-80.4l16.5 56.5q1.1 3.8 2.1 7.9c0.7 2.8 1.4 6 2.1 9.5q1.4-6.3 2.3-10.4 0.9-4.1 1.8-7l15.5-56.5h36.2l-37.2 118.8h-33.2l-16.3-50.7q-0.9-2.7-3-10.5-0.9-3.5-1.4-5.4-0.4 1.7-1.3 4.8-2 7.8-3.1 11.1l-16 50.7h-33.3l-37.2-118.8h36.3l15.1 56.8q1.1 4.4 2.1 8.8 1 4.3 1.9 9 0.8-3.4 1.8-7.2 0.9-3.7 2.8-10.6l16.5-56.8zm92.8 118.8v-118.8h36.2v118.8zm68 0v-118.8h73.2v26.1h-38.2v20.6h31.8v25.4h-31.8v46.7zm120.8 0v-83.5h-25.7v-35.3h89.7v35.3h-25.8v83.5z"/>
		</g>
		<g id="Group 12">
		</g>
		<g id="Group 14">
		</g>
		<g id="Group 16">
		</g>
	</g>
</svg>